<svg width="0" height="0" class="hidden">
  <symbol version="1.0" xmlns="http://www.w3.org/2000/svg" preserveAspectRatio="xMidYMid meet" viewBox="0 0 50.000000 50.000000" id="tiktok">
    <g transform="translate(0.000000,50.000000) scale(0.100000,-0.100000)" fill="#000000" stroke="none">
      <path d="M56 444 c-24 -23 -24 -365 0 -388 23 -24 365 -24 388 0 24 23 24 365
0 388 -23 24 -365 24 -388 0z m379 -194 l0 -185 -185 0 -185 0 -3 175 c-1 96
0 180 3 187 3 11 44 13 187 11 l183 -3 0 -185z"></path>
      <path d="M250 291 c0 -87 -3 -111 -16 -122 -11 -9 -20 -10 -32 -2 -24 15 -21
46 6 58 15 7 22 18 22 39 0 27 -2 28 -32 22 -18 -3 -43 -17 -55 -32 -76 -85
47 -205 133 -130 24 20 28 32 32 89 l4 65 34 -5 c32 -5 34 -4 34 23 0 22 -8
33 -31 47 -17 9 -33 26 -36 37 -4 14 -14 20 -34 20 l-29 0 0 -109z m58 59 c13
-16 29 -30 37 -30 8 0 15 -7 15 -15 0 -8 -6 -15 -14 -15 -7 0 -19 7 -26 15
-23 28 -30 15 -30 -60 0 -67 -3 -79 -25 -100 -13 -14 -36 -25 -50 -25 -33 0
-75 42 -75 75 0 26 39 75 60 75 17 0 11 -19 -9 -30 -25 -13 -35 -44 -22 -69
16 -28 48 -35 76 -17 24 16 25 21 25 121 0 58 4 105 8 105 5 0 18 -13 30 -30z"></path>
    </g>
  </symbol>
  <symbol version="1.0" xmlns="http://www.w3.org/2000/svg" preserveAspectRatio="xMidYMid meet" viewBox="0 0 60.000000 60.000000" id="menu">
    <g transform="translate(0.000000,60.000000) scale(0.100000,-0.100000)" fill="#000000" stroke="none">
      <path d="M45 449 c-16 -25 21 -29 261 -27 213 3 249 5 249 18 0 13 -36 15
-252 18 -175 2 -254 -1 -258 -9z"></path>
      <path d="M45 309 c-16 -25 21 -29 261 -27 213 3 249 5 249 18 0 13 -36 15
-252 18 -175 2 -254 -1 -258 -9z"></path>
      <path d="M45 169 c-16 -25 21 -29 261 -27 213 3 249 5 249 18 0 13 -36 15
-252 18 -175 2 -254 -1 -258 -9z"></path>
    </g>
  </symbol>
  <symbol version="1.0" xmlns="http://www.w3.org/2000/svg" preserveAspectRatio="xMidYMid meet" viewBox="0 0 50.000000 50.000000" id="facebook">
    <g transform="translate(0.000000,50.000000) scale(0.100000,-0.100000)" fill="#000000" stroke="none">
      <path d="M56 444 c-24 -23 -24 -365 0 -388 23 -24 365 -24 388 0 24 23 24 365
0 388 -23 24 -365 24 -388 0z m379 -194 l0 -185 -52 -3 -53 -3 0 70 c0 63 2
71 19 71 11 0 21 9 25 23 10 38 7 47 -19 47 -16 0 -25 6 -25 15 0 9 9 15 25
15 21 0 25 5 25 29 0 31 -14 41 -60 41 -33 0 -70 -40 -70 -76 0 -15 -6 -24
-15 -24 -10 0 -15 -11 -15 -35 0 -24 5 -35 15 -35 12 0 15 -14 15 -70 l0 -71
-92 3 -93 3 -3 175 c-1 96 0 180 3 187 3 11 44 13 187 11 l183 -3 0 -185z
m-78 83 c2 -6 -6 -13 -19 -15 -18 -2 -24 -10 -26 -35 -3 -29 0 -33 22 -33 18
0 24 -4 20 -15 -4 -8 -15 -15 -25 -15 -17 0 -19 -8 -19 -80 0 -73 -2 -80 -20
-80 -18 0 -20 7 -20 80 0 64 -3 80 -15 80 -8 0 -15 7 -15 15 0 8 7 15 15 15
10 0 15 10 15 34 0 19 7 42 16 51 18 18 65 17 71 -2z"></path>
    </g>
  </symbol>
  <symbol version="1.0" xmlns="http://www.w3.org/2000/svg" preserveAspectRatio="xMidYMid meet" viewBox="0 0 64.000000 64.000000" id="twitter">
    <g transform="translate(0.000000,64.000000) scale(0.100000,-0.100000)" fill="#000000" stroke="none">
      <path d="M22 617 c-21 -23 -22 -30 -22 -298 0 -275 0 -276 23 -297 23 -21 30
-22 299 -22 l277 0 20 26 c22 28 28 64 11 64 -5 0 -10 -9 -10 -19 0 -49 -13
-51 -300 -51 -231 0 -271 2 -284 16 -14 13 -16 53 -16 284 0 287 2 300 51 300
10 0 19 5 19 10 0 19 -47 10 -68 -13z"></path>
      <path d="M110 630 c0 -5 5 -10 10 -10 6 0 10 5 10 10 0 6 -4 10 -10 10 -5 0
-10 -4 -10 -10z"></path>
      <path d="M150 630 c0 -6 80 -10 219 -10 216 0 220 0 235 -22 13 -19 16 -61 16
-255 0 -149 4 -233 10 -233 6 0 10 83 10 230 0 241 -6 279 -45 294 -28 11
-445 7 -445 -4z"></path>
      <path d="M334 490 c-25 -10 -74 -66 -74 -86 0 -26 -56 -15 -110 21 -29 19 -54
35 -56 35 -9 0 -3 -77 9 -110 6 -20 27 -55 46 -78 18 -24 32 -44 30 -46 -2 -2
-14 -9 -27 -15 -31 -17 -28 -25 20 -47 28 -13 65 -19 109 -19 56 0 73 5 115
30 58 37 102 96 111 150 3 22 14 51 24 64 13 16 17 32 12 50 -8 34 -8 34 -30
21 -16 -10 -25 -8 -57 14 -39 26 -83 32 -122 16z m118 -39 c18 -15 39 -26 47
-23 8 3 11 0 7 -6 -3 -6 0 -13 6 -16 10 -3 8 -9 -4 -19 -10 -8 -18 -25 -18
-38 0 -38 -41 -110 -80 -140 -45 -36 -113 -54 -170 -45 -68 10 -79 20 -50 44
24 19 24 21 7 39 -9 11 -17 25 -17 31 0 6 -9 13 -19 17 -22 7 -37 38 -22 43
18 6 13 20 -9 27 -13 4 -20 15 -20 31 0 27 12 31 30 9 15 -18 115 -49 130 -40
5 3 10 16 10 28 0 12 8 32 18 43 42 52 105 58 154 15z"></path>
    </g>
  </symbol>
  <symbol version="1.0" xmlns="http://www.w3.org/2000/svg" preserveAspectRatio="xMidYMid meet" viewBox="0 0 64.000000 64.000000" id="ig">
    <g transform="translate(0.000000,64.000000) scale(0.100000,-0.100000)" fill="#000000" stroke="none">
      <path d="M22 617 c-21 -23 -22 -30 -22 -298 0 -275 0 -276 23 -297 23 -21 30
-22 299 -22 l277 0 20 26 c22 28 28 64 11 64 -5 0 -10 -9 -10 -19 0 -49 -13
-51 -300 -51 -231 0 -271 2 -284 16 -14 13 -16 53 -16 284 0 287 2 300 51 300
10 0 19 5 19 10 0 19 -47 10 -68 -13z"></path>
      <path d="M110 630 c0 -5 5 -10 10 -10 6 0 10 5 10 10 0 6 -4 10 -10 10 -5 0
-10 -4 -10 -10z"></path>
      <path d="M150 630 c0 -6 80 -10 219 -10 216 0 220 0 235 -22 13 -19 16 -61 16
-255 0 -149 4 -233 10 -233 6 0 10 83 10 230 0 241 -6 279 -45 294 -28 11
-445 7 -445 -4z"></path>
      <path d="M129 511 c-27 -27 -29 -35 -29 -105 0 -44 4 -76 10 -76 6 0 10 5 10
10 0 6 20 10 45 10 42 0 45 -2 45 -25 0 -58 55 -115 110 -115 55 0 110 57 110
115 0 23 3 25 45 25 l45 0 0 -89 c0 -74 -3 -92 -21 -115 l-20 -26 -158 0
c-152 0 -158 1 -179 23 -17 18 -22 36 -22 75 0 29 -4 52 -10 52 -5 0 -10 -25
-10 -56 0 -48 4 -59 29 -85 l29 -29 162 0 162 0 29 29 c29 29 29 31 29 145 0
71 -4 116 -10 116 -5 0 -10 -4 -10 -10 0 -5 -22 -10 -50 -10 -39 0 -54 5 -74
25 -45 45 -107 45 -152 0 -20 -20 -35 -25 -74 -25 l-50 0 0 53 c0 43 5 58 23
75 22 21 33 22 178 22 150 0 156 -1 177 -23 13 -14 22 -36 22 -55 0 -18 5 -32
10 -32 6 0 10 16 10 36 0 26 -8 43 -29 65 l-29 29 -162 0 -162 0 -29 -29z
m252 -130 c20 -20 29 -39 29 -61 0 -43 -47 -90 -90 -90 -22 0 -41 9 -61 29
-39 40 -39 82 0 122 20 20 39 29 61 29 22 0 41 -9 61 -29z"></path>
      <path d="M430 485 c-26 -32 13 -81 48 -59 22 14 27 41 12 59 -16 19 -44 19
-60 0z m46 -16 c10 -17 -13 -36 -27 -22 -12 12 -4 33 11 33 5 0 12 -5 16 -11z"></path>
      <path d="M100 300 c0 -5 5 -10 10 -10 6 0 10 5 10 10 0 6 -4 10 -10 10 -5 0
-10 -4 -10 -10z"></path>
    </g>
  </symbol>
  <symbol version="1.0" xmlns="http://www.w3.org/2000/svg" preserveAspectRatio="xMidYMid meet" viewBox="0 0 48.000000 48.000000" id="cross">
    <g transform="translate(0.000000,48.000000) scale(0.100000,-0.100000)" fill="#000000" stroke="none">
      <path d="M94 379 c-3 -6 22 -39 57 -75 l63 -64 -62 -63 c-49 -49 -60 -65 -50
-75 10 -10 26 1 75 50 l63 62 63 -62 c49 -49 65 -60 75 -50 10 10 -1 26 -50
75 l-62 63 64 65 c51 51 62 67 52 77 -10 10 -26 -1 -77 -52 l-65 -64 -63 62
c-66 65 -72 69 -83 51z"></path>
    </g>
  </symbol>
</svg>